# xmcd CD database file
#
# Track frame offsets:
#	150
#	12762
#	30225
#	41092
#	52622
#	65152
#	75795
#	91470
#	108047
#	116775
#	126322
#	135342
#	145917
#	156815
#
# Disc length: 2347 seconds
#
# Revision: 2
# Processed by: cddbd v1.5.2PL0 Copyright (c) Steve Scherf et al.
# Submitted via: CDex 1.70beta2
#
DISCID=a709290e
DTITLE=MP-3 COUNTRY-2 - 37 - Greatest Hits vol.2
DYEAR=1989
DGENRE=Country
TTITLE0=Roy Orbison - Crying
TTITLE1=Kenny Rogers - Something's Burning
TTITLE2=Johnny Cash - I Love You Because
TTITLE3=Jerry Lee Lewis - Your Cheatin' Heart
TTITLE4=Jeannie C. Riley - Roses And Thorns
TTITLE5=Charlie Rich - Unchained Melody
TTITLE6=Kris Kristofferson - Why Me
TTITLE7=Dick van Altena - Dust On The Flattop
TTITLE8=Waylon Jennings - Love's Gonna Live Here
TTITLE9=Dolly Parton - Something Fishy
TTITLE10=Webb Pierce - I Ain't Never
TTITLE11=Roy Drusky - Strangers
TTITLE12=Hank Locklin - Send Me The Pillow
TTITLE13=Matt Minglewood - Working Man
EXTD=YEAR: 1989
EXTT0=
EXTT1=
EXTT2=
EXTT3=
EXTT4=
EXTT5=
EXTT6=
EXTT7=
EXTT8=
EXTT9=
EXTT10=
EXTT11=
EXTT12=
EXTT13=
PLAYORDER=
